<?xml version="1.0" encoding="utf-8" ?>
<svg width="1200" height="300" xmlns="http://www.w3.org/2000/svg" xmlns:xlink="http://www.w3.org/1999/xlink" xmlns:ev="http://www.w3.org/2001/xml-events" baseProfile="full" version="1.1"><defs /><rect fill="white" x="0" y="0" width="1200" height="300" /><line stroke="darkgray" stroke-width="2" x1="129.66666666666669" y1="30" x2="129.66666666666669" y2="262.5" /><line stroke="darkgray" stroke-width="2" x1="204.33333333333334" y1="30" x2="204.33333333333334" y2="262.5" /><line stroke="darkgray" stroke-width="2" x1="279.0" y1="30" x2="279.0" y2="262.5" /><line stroke="darkgray" stroke-width="2" x1="353.6666666666667" y1="30" x2="353.6666666666667" y2="262.5" /><line stroke="darkgray" stroke-width="2" x1="428.33333333333337" y1="30" x2="428.33333333333337" y2="262.5" /><line stroke="darkgray" stroke-width="2" x1="503.0" y1="30" x2="503.0" y2="262.5" /><line stroke="darkgray" stroke-width="2" x1="577.6666666666667" y1="30" x2="577.6666666666667" y2="262.5" /><line stroke="darkgray" stroke-width="2" x1="652.3333333333334" y1="30" x2="652.3333333333334" y2="262.5" /><line stroke="darkgray" stroke-width="2" x1="727.0" y1="30" x2="727.0" y2="262.5" /><line stroke="darkgray" stroke-width="2" x1="801.6666666666667" y1="30" x2="801.6666666666667" y2="262.5" /><line stroke="darkgray" stroke-width="2" x1="876.3333333333334" y1="30" x2="876.3333333333334" y2="262.5" /><line stroke="darkgray" stroke-width="2" x1="951.0" y1="30" x2="951.0" y2="262.5" /><line stroke="darkgray" stroke-width="2" x1="1025.6666666666667" y1="30" x2="1025.6666666666667" y2="262.5" /><line stroke="darkgray" stroke-width="2" x1="1100.3333333333335" y1="30" x2="1100.3333333333335" y2="262.5" /><line stroke="darkgray" stroke-width="2" x1="1175.0" y1="30" x2="1175.0" y2="262.5" /><circle fill="black" cx="241.66666666666666" cy="270.5" r="2" /><circle fill="black" cx="391.00000000000006" cy="270.5" r="2" /><circle fill="black" cx="540.3333333333335" cy="270.5" r="2" /><circle fill="black" cx="689.6666666666666" cy="270.5" r="2" /><circle fill="black" cx="909.6666666666666" cy="270.5" r="2" /><circle fill="black" cx="917.6666666666666" cy="270.5" r="2" /><circle fill="black" cx="1137.6666666666667" cy="270.5" r="2" /><line stroke="darkslategray" stroke-width="3.0" x1="45.0" y1="261.0" x2="1185.0" y2="261.0" /><line stroke="darkslategray" stroke-width="2.6666666666666665" x1="45.0" y1="216.0" x2="1185.0" y2="216.0" /><line stroke="darkslategray" stroke-width="2.3333333333333335" x1="45.0" y1="169.5" x2="1185.0" y2="169.5" /><line stroke="darkslategray" stroke-width="2.0" x1="45.0" y1="123.0" x2="1185.0" y2="123.0" /><line stroke="darkslategray" stroke-width="1.6666666666666667" x1="45.0" y1="76.5" x2="1185.0" y2="76.5" /><line stroke="darkslategray" stroke-width="1.3333333333333335" x1="45.0" y1="30.666666666666668" x2="1185.0" y2="30.666666666666668" /><line stroke="darkslategray" stroke-width="10" x1="50.0" y1="30" x2="50.0" y2="262.5" /><circle fill="black" stroke="darkslategray" stroke-width="2" cx="241.66666666666666" cy="262.5" r="15" /><text font-family="Lato" font-size="15" font-weight="bold" fill="white" text-anchor="middle" alignment-baseline="central" x="241.66666666666666" y="262.5">1</text><circle fill="black" stroke="darkslategray" stroke-width="2" cx="241.66666666666666" cy="216.0" r="15" /><text font-family="Lato" font-size="15" font-weight="bold" fill="white" text-anchor="middle" alignment-baseline="central" x="241.66666666666666" y="216.0">4</text><circle fill="black" stroke="darkslategray" stroke-width="2" cx="391.00000000000006" cy="216.0" r="15" /><text font-family="Lato" font-size="15" font-weight="bold" fill="white" text-anchor="middle" alignment-baseline="central" x="391.00000000000006" y="216.0">5</text><circle fill="black" stroke="darkslategray" stroke-width="2" cx="391.00000000000006" cy="169.5" r="15" /><text font-family="Lato" font-size="15" font-weight="bold" fill="white" text-anchor="middle" alignment-baseline="central" x="391.00000000000006" y="169.5">1</text><circle fill="black" stroke="darkslategray" stroke-width="2" cx="391.00000000000006" cy="123.0" r="15" /><text font-family="Lato" font-size="15" font-weight="bold" fill="white" text-anchor="middle" alignment-baseline="central" x="391.00000000000006" y="123.0">4</text><circle fill="black" stroke="darkslategray" stroke-width="2" cx="540.3333333333335" cy="123.0" r="15" /><text font-family="Lato" font-size="15" font-weight="bold" fill="white" text-anchor="middle" alignment-baseline="central" x="540.3333333333335" y="123.0">5</text></svg>