<?xml version="1.0" encoding="utf-8" ?>
<svg width="200" height="400" xmlns="http://www.w3.org/2000/svg" xmlns:xlink="http://www.w3.org/1999/xlink" xmlns:ev="http://www.w3.org/2001/xml-events" baseProfile="full" version="1.1"><defs /><rect fill="white" x="0" y="0" width="200" height="400" /><line stroke="darkgray" stroke-width="2" x1="30" y1="87.0" x2="162.5" y2="87.0" /><line stroke="darkgray" stroke-width="2" x1="30" y1="119.0" x2="162.5" y2="119.0" /><line stroke="darkgray" stroke-width="2" x1="30" y1="151.0" x2="162.5" y2="151.0" /><line stroke="darkgray" stroke-width="2" x1="30" y1="183.0" x2="162.5" y2="183.0" /><line stroke="darkgray" stroke-width="2" x1="30" y1="215.0" x2="162.5" y2="215.0" /><line stroke="darkgray" stroke-width="2" x1="30" y1="247.0" x2="162.5" y2="247.0" /><line stroke="darkgray" stroke-width="2" x1="30" y1="279.0" x2="162.5" y2="279.0" /><line stroke="darkgray" stroke-width="2" x1="30" y1="311.0" x2="162.5" y2="311.0" /><line stroke="darkgray" stroke-width="2" x1="30" y1="343.0" x2="162.5" y2="343.0" /><line stroke="darkgray" stroke-width="2" x1="30" y1="375.0" x2="162.5" y2="375.0" /><circle fill="black" cx="22" cy="135.0" r="2" /><circle fill="black" cx="22" cy="199.0" r="2" /><circle fill="black" cx="22" cy="263.0" r="2" /><circle fill="black" cx="22" cy="327.0" r="2" /><line stroke="darkslategray" stroke-width="3.0" x1="31.5" y1="45.0" x2="31.5" y2="385.0" /><line stroke="darkslategray" stroke-width="2.6666666666666665" x1="56.5" y1="45.0" x2="56.5" y2="385.0" /><line stroke="darkslategray" stroke-width="2.3333333333333335" x1="83.0" y1="45.0" x2="83.0" y2="385.0" /><line stroke="darkslategray" stroke-width="2.0" x1="109.5" y1="45.0" x2="109.5" y2="385.0" /><line stroke="darkslategray" stroke-width="1.6666666666666667" x1="136.0" y1="45.0" x2="136.0" y2="385.0" /><line stroke="darkslategray" stroke-width="1.3333333333333335" x1="161.83333333333334" y1="45.0" x2="161.83333333333334" y2="385.0" /><line stroke="darkslategray" stroke-width="10" x1="30" y1="50.0" x2="162.5" y2="50.0" /><circle fill="darkseagreen" stroke="darkslategray" stroke-width="2" cx="30.0" cy="199.0" r="12" /><text font-family="Lato" font-size="15" font-weight="bold" fill="white" text-anchor="middle" alignment-baseline="central" x="30.0" y="199.0">1</text><circle fill="rgb(182,211,182)" stroke="darkslategray" stroke-width="2" cx="30.0" cy="263.0" r="12" /><text font-family="Lato" font-size="15" font-weight="bold" fill="white" text-anchor="middle" alignment-baseline="central" x="30.0" y="263.0">2</text><circle fill="rgb(182,211,182)" stroke="darkslategray" stroke-width="2" cx="30.0" cy="295.0" r="12" /><text font-family="Lato" font-size="15" font-weight="bold" fill="white" text-anchor="middle" alignment-baseline="central" x="30.0" y="295.0">♭3</text><circle fill="rgb(182,211,182)" stroke="darkslategray" stroke-width="2" cx="30.0" cy="359.0" r="12" /><text font-family="Lato" font-size="15" font-weight="bold" fill="white" text-anchor="middle" alignment-baseline="central" x="30.0" y="359.0">4</text></svg>